<svg xmlns="http://www.w3.org/2000/svg" xmlns:xlink="http://www.w3.org/1999/xlink" viewBox="0 0 297.05 395.46" width="310" height="400"><defs><style>.cls-1{fill:#fd0;}.cls-2{fill:#fbd206;}.cls-12,.cls-16,.cls-24,.cls-27,.cls-3{fill:none;}.cls-4{isolation:isolate;}.cls-5,.cls-9{fill:#fff;}.cls-5{opacity:0.24;}.cls-6{fill:#b3b3b3;}.cls-7{fill:#0071bc;}.cls-8{fill:#f7ad40;}.cls-10{fill:#221f1f;}.cls-10,.cls-12,.cls-16,.cls-22{opacity:0.2;}.cls-10,.cls-12,.cls-16,.cls-18,.cls-22,.cls-26{mix-blend-mode:multiply;}.cls-11{clip-path:url(#clip-path);}.cls-12,.cls-16{stroke:#221f1f;}.cls-12,.cls-16,.cls-24,.cls-27{stroke-miterlimit:10;}.cls-12{stroke-width:0.61px;}.cls-13{fill:#463f37;}.cls-14{fill:#8fce9d;}.cls-15{clip-path:url(#clip-path-2);}.cls-16{stroke-width:0.42px;}.cls-17{fill:#3fa9f5;}.cls-18{opacity:0.3;}.cls-19{clip-path:url(#clip-path-3);}.cls-20{fill:#4d4d4d;}.cls-21{fill:#e82429;}.cls-23{fill:#ccc;}.cls-24{stroke:#b3b3b3;stroke-width:10.93px;}.cls-25{fill:#7c7c7a;}.cls-26{opacity:0.14;}.cls-27{stroke:#fff;stroke-width:0.79px;}</style><clipPath id="clip-path"><path class="cls-1" d="M221.91,335.74l4-26.2S198.08,330.67,197.24,331,221.91,335.74,221.91,335.74Z"/></clipPath><clipPath id="clip-path-2"><path class="cls-2" d="M17.37,42.47,6.86,27.22S2.81,51.3,2.54,51.87,17.37,42.47,17.37,42.47Z"/></clipPath><clipPath id="clip-path-3"><rect class="cls-3" x="84.69" y="94.11" width="180.64" height="113.85" rx="56.92" ry="56.92" transform="translate(49.48 -43.09) rotate(16.32)"/></clipPath></defs><title>Asset 3</title><g class="cls-4"><g id="Layer_2" data-name="Layer 2"><g id="Layer_1-2" data-name="Layer 1"><rect class="cls-5" x="99.16" y="108.35" width="155.33" height="97.9" rx="48.95" ry="48.95" transform="translate(51.31 -43.34) rotate(16.32)"/><rect class="cls-6" x="61.57" y="195.75" width="36.13" height="105.62" rx="18.07" ry="18.07" transform="translate(134.95 -6.52) rotate(30)"/><path class="cls-7" d="M284.09,153.32l-15.78-9c-13.55-6.87-33.9,24.88-39.59,37s-17.11,48.06-3.14,54.1l17,6.4c13.35,3.9,29.5-24.68,35.45-37.38S295.65,161.11,284.09,153.32Z"/><path class="cls-8" d="M221.91,335.74l4-26.2S198.08,330.67,197.24,331,221.91,335.74,221.91,335.74Z"/><path class="cls-9" d="M286.65,368.12a.63.63,0,0,1,.82-.21.53.53,0,0,1,.11.78.63.63,0,0,1-.82.22A.54.54,0,0,1,286.65,368.12Z"/><path class="cls-1" d="M282.35,382.43s6.32,2.53,5.77,4.76c-1.51,6.15-67.5,13.86-66.75-51.9C221.37,335.29,313,307.64,282.35,382.43Z"/><path class="cls-1" d="M267.68,331.64c3.13-7.49-5-17.4-13.12-18.41-2.37-.32-6.23,1.53-4.05,4,1.1,1.36,3.38,1.88,5,2.63a27.08,27.08,0,0,1,5.3,3.27c3.75,3.08,4.35,6.36,4,10.74,0-.09.09-.19.08-.38"/><path class="cls-1" d="M266.44,334.32c8.33-2.09,12.32-14.11,8.55-20.84-1.07-2-4.91-3.8-5.85-.65-.55,1.63.3,3.66.54,5.29a23.16,23.16,0,0,1,.18,5.94c-.54,4.66-3.05,7.06-7.08,9.4.08-.06.22,0,.38-.17"/><path class="cls-1" d="M264.94,332.37c-.78-6.13-10.23-10.1-16.19-8-1.75.58-3.68,3.14-1.2,4.1,1.28.55,3,.13,4.42.11a22.43,22.43,0,0,1,4.91.43c3.78.82,5.47,2.84,6.94,5.93,0-.07,0-.17-.09-.29"/><path class="cls-10" d="M240.92,338.88s-7.57-2.55-5.79,5.1c0,0-1.46-5.48,5.63-5.15Z"/><path class="cls-10" d="M248.15,339.18s-7.57-2.55-5.79,5.1c0,0-1.46-5.48,5.63-5.15Z"/><path class="cls-10" d="M247,346.26s-6-2-4.56,4c0,0-1.15-4.32,4.43-4.06Z"/><path class="cls-10" d="M239.72,345.25s-7.57-2.55-5.79,5.1c0,0-1.46-5.48,5.63-5.15Z"/><path class="cls-10" d="M232.6,342.13s-6-2-4.63,4.08c0,0-1.17-4.38,4.5-4.12Z"/><path class="cls-10" d="M237.05,335.13s-6.05-2-4.63,4.07c0,0-1.16-4.38,4.5-4.11Z"/><path class="cls-10" d="M228.67,337.14s-4.62-1.56-3.54,3.11c0,0-.89-3.35,3.44-3.14Z"/><path class="cls-1" d="M221.91,335.74l4-26.2S198.08,330.67,197.24,331,221.91,335.74,221.91,335.74Z"/><g class="cls-11"><path class="cls-12" d="M221.4,339l-.9-28.35-4.61,3.64,5.65,22.55L210.43,318l-5.27,5.14,19.49,14.93.49-1.39s-29.8-8.48-29.62-8.71"/></g><path class="cls-10" d="M264.7,390.6c-37.52-10.28-43-53.53-43.24-55.41l-.17.05C220.83,375.4,245.26,388.16,264.7,390.6Z"/><path class="cls-9" d="M282.35,382.43C295.59,350.15,286,337,270.9,332.38c3.24,1,27,10.12,10.7,50,0,0,5.41,1.94,5.94,5.6a1.76,1.76,0,0,0,.58-.83C288.67,385,282.35,382.43,282.35,382.43Z"/><path class="cls-9" d="M271.59,331.35c4.64-4.53,6.28-12.74,3.4-17.87a4.86,4.86,0,0,0-1.6-1.63C275.28,314.76,278,321.52,271.59,331.35Z"/><path class="cls-9" d="M254.56,313.23a5.57,5.57,0,0,0-3,.51c3.15-.23,12.59.35,16.76,14.64C268.52,321.54,261.53,314.1,254.56,313.23Z"/><path class="cls-13" d="M280.06,367.19a5.46,5.46,0,0,1-7.29-1,4.66,4.66,0,0,1,1.16-6.79,5.46,5.46,0,0,1,7.29,1A4.67,4.67,0,0,1,280.06,367.19Z"/><path class="cls-9" d="M277.54,363.13a2.71,2.71,0,0,1-3.55.66,2.26,2.26,0,0,1-.17-3.35,2.7,2.7,0,0,1,3.54-.65A2.26,2.26,0,0,1,277.54,363.13Z"/><path class="cls-13" d="M275.67,361.59a1.29,1.29,0,0,1-1.7.31,1.08,1.08,0,0,1-.08-1.6,1.28,1.28,0,0,1,1.7-.32A1.09,1.09,0,0,1,275.67,361.59Z"/><path class="cls-14" d="M17.37,42.47,6.86,27.22S2.81,51.3,2.54,51.87,17.37,42.47,17.37,42.47Z"/><path class="cls-9" d="M65.83,28a.45.45,0,0,1,.32-.51.38.38,0,0,1,.43.35.45.45,0,0,1-.32.51A.38.38,0,0,1,65.83,28Z"/><path class="cls-2" d="M70.49,37.31s4.43-1.74,5.22-.34C77.89,40.82,48,76.34,16.88,42.5,16.88,42.5,50.3-15.45,70.49,37.31Z"/><path class="cls-2" d="M38.71,18.47c-2-5.31-10.88-6.46-15.5-3.09-1.35,1-2.44,3.76-.12,4,1.21.16,2.62-.66,3.78-1a17.92,17.92,0,0,1,4.26-.87c3.39-.23,5.26,1.15,7.18,3.55-.05-.05-.05-.14-.14-.23"/><path class="cls-2" d="M39.36,20.43c3.24-5-.48-13.08-5.62-14.7-1.5-.5-4.32.41-3.3,2.47.51,1.09,1.91,1.72,2.82,2.43a16.64,16.64,0,0,1,2.93,2.94c2,2.63,1.83,5.06.89,8.17,0-.06.09-.13.12-.26"/><path class="cls-2" d="M37.67,20.16c-3.34-2.75-10-.25-12.1,3.66C25,25,25.2,27.18,26.93,26.48c.91-.34,1.61-1.39,2.3-2.06a15.88,15.88,0,0,1,2.7-2.14c2.32-1.39,4.15-1.17,6.37-.3,0,0-.08-.08-.18-.1"/><path class="cls-10" d="M28.55,35S23.47,37.3,28,40.34c0,0-3.36-2.09.4-5.32Z"/><path class="cls-10" d="M32.38,31.66S27.3,34,31.87,37c0,0-3.37-2.09.4-5.32Z"/><path class="cls-10" d="M35.2,35.8s-4,1.83-.4,4.23c0,0-2.65-1.65.32-4.19Z"/><path class="cls-10" d="M31,38.79s-5.08,2.33-.51,5.37c0,0-3.36-2.09.4-5.32Z"/><path class="cls-10" d="M25.87,40.61s-4.06,1.86-.4,4.29c0,0-2.7-1.67.32-4.25Z"/><path class="cls-10" d="M24.78,34.91s-4.05,1.86-.4,4.29c0,0-2.69-1.67.32-4.25Z"/><path class="cls-10" d="M21.48,40s-3.1,1.42-.31,3.27c0,0-2.06-1.27.24-3.24Z"/><path class="cls-2" d="M17.37,42.47,6.86,27.22S2.81,51.3,2.54,51.87,17.37,42.47,17.37,42.47Z"/><g class="cls-15"><path class="cls-16" d="M18.68,44.39l-14-14-.6,4.06,13.67,8.77L3,38.94l-.22,5.14,17.07-1.73-.42-.94S.23,51.36.21,51.15"/></g><path class="cls-10" d="M65.42,49.92c-24,12.73-47.53-6.66-48.54-7.52l-.07.11C35.8,63.18,54.35,58,65.42,49.92Z"/><path class="cls-9" d="M70.49,37.31c-8.71-22.77-19.89-24.92-29.78-20,2.14-1,18.6-7.79,29.4,20.35,0,0,3.68-1.6,5.7,0a1.16,1.16,0,0,0-.1-.7C74.92,35.57,70.49,37.31,70.49,37.31Z"/><path class="cls-9" d="M40.56,16.46c.19-4.53-2.9-9.5-6.82-10.73a3.41,3.41,0,0,0-1.6-.07C34.5,6.24,39.1,8.4,40.56,16.46Z"/><path class="cls-9" d="M23.21,15.38A3.92,3.92,0,0,0,22,17.06c1.5-1.63,6.58-5.85,15.54-.57C34.3,12.93,27.18,12.49,23.21,15.38Z"/><path class="cls-13" d="M62,30.65a3.82,3.82,0,0,1-4.21,3,3.26,3.26,0,0,1-2.66-4,3.82,3.82,0,0,1,4.21-3A3.27,3.27,0,0,1,62,30.65Z"/><path class="cls-9" d="M61.71,29.63a.68.68,0,0,1-.53.73.57.57,0,0,1-.61-.58.68.68,0,0,1,.53-.73A.57.57,0,0,1,61.71,29.63Z"/><path class="cls-17" d="M251.07,270.1l-3.21-6.26c-30.39,15.56-56.89,17.39-78.75,5.42a63.64,63.64,0,0,1-23.69-22.38l-6.18,3.37a70.2,70.2,0,0,0,26.49,25.19C195.66,291.81,228.66,281.58,251.07,270.1Z"/><path class="cls-17" d="M248.37,266.06c-3-3-6.63-20.08.12-18.33,5.14,1.51,3,13.4,2.47,17.16l.53.08a34.31,34.31,0,0,1,7.45.75c3.81.88,21.81,7.21,21.34,12.53-.31,7.21-20.78-5.31-24.09-7.33,5.29,3.4,11.85,13,9.13,19.45-7.15.94-9.83-15.48-10.72-20.56-.14,3.17-.15,14.16-5.22,10-2.64-2.14-1.77-7.18-1.23-10.07"/><path class="cls-17" d="M164,194.26c-2.3,12.26-5.09,24.45-7.55,36.69-2.4,11.89-5.66,23.55-8.78,35.26S141.5,289.76,136.9,301a107.22,107.22,0,0,1-9.69,18.62C119.55,331.26,109,346.35,95.12,351c-4.39,1.46-9,1.54-13.61,1.53.28-4,.24-8.13.32-12.18,0-1.32-.43-4.2.11-5.39,1-2.22,5.78-4.74,7.63-6.52a34.54,34.54,0,0,0,5-5.82c2.55-3.84,4.83-9,2.08-13.3-1.79-2.81-5.51-5.15-8.5-6.48-25-11.09-63.24,12.41-49.53,37.69l-11.88,5.18c-1.36.59-8.3-10.79-8.78-11.69-4.42-8.33-7.5-19.19-4.92-28.5,2.48-8.92,9.24-16,16.64-21.25a79,79,0,0,1,13.78-8c5.8-2.51,11.94-4.26,17.34-7.62a73,73,0,0,0,14.45-12.44c11-11.8,18.46-28.41,23.88-43.36a329.27,329.27,0,0,0,11.52-40.55S112.63,163.57,164,194.26Z"/><path class="cls-7" d="M139,295.47s-33.95,0-68.45-34.55a90.22,90.22,0,0,1-11.1,8.48S83.87,308.13,131,313.52C131,313.52,134.63,307.65,139,295.47Z"/><path class="cls-7" d="M89,351.72s-5.21-3-.8-22.88l-7.94-4.62s-8.41,21.6,1.62,32.55Z"/><path class="cls-7" d="M81.22,330.49s-6.12-2.43-12,21.48c0,0,.87,4.77-8.72-1.31S41,386.21,49.66,377.79s8.31-19.6,24.08-21.71,9.71-6,9.71-6Z"/><path class="cls-18" d="M79.13,355.1s-6-11.52-1.31-24.4c0,0-6.67,15.8.15,24.67Z"/><path class="cls-7" d="M21.26,344.71s6.45.81,20.85-11.56L50,337.78s-14.92,18.45-29.39,15.13Z"/><path class="cls-7" d="M44.74,341.17s3.35,4.88-14.53,21.81c0,0-4.58,1.59,5.44,6.93s-21.3,34.52-18.26,22.8,13-16.9,7-31.66.45-11.41.45-11.41Z"/><path class="cls-18" d="M22.59,355.88s13-.47,21.87-10.9c0,0-10.46,13.6-21.53,12Z"/><ellipse class="cls-17" cx="158.88" cy="156.59" rx="111.41" ry="107.21"/><g class="cls-19"><ellipse class="cls-20" cx="196.09" cy="144.52" rx="82.13" ry="72.83" transform="translate(36.95 328.95) rotate(-85.6)"/><polygon class="cls-9" points="96.8 210.93 66.48 162.94 93.54 102.73 102.43 83.75 107.06 40.09 122.02 38.76 147.23 64.31 169.19 100.66 230.56 95.88 261.61 93.5 230.34 136.89 226.81 184.38 197.2 215.41 141.2 230.72 96.8 210.93"/><path class="cls-21" d="M240.43,219s7.4-18.67-4.39-39.66c0,0,7.6,3.8,9,6.46a44.74,44.74,0,0,0-12.13-23.6L241.52,137l8.14,8s1.39-4.11-5.33-14.08c13.28-9.38,22-34.66,22-34.66C237,77.44,217.49,88,212.14,91.71a158,158,0,0,0-30-10.61s9.85-2.67,17.73,0c0,0-16.81-13.25-41.11-6.67,0,0-19.52-36.29-53-42.13,0,0-10.16,13.35-9.48,59.27,0,0-26.95,3.36-40,16.93,0,0,18.39-8.89,26.62-8.78,0,0-40.92,15.47-41.06,43.1,0,0,7.22-13.68,13.41-15.56,0,0-8.46,11.82-11.3,24.49l-.42-.74a14.73,14.73,0,0,1,.38,2.93c0,.09,0,.16,0,.25a36.64,36.64,0,0,1,4.27,4.69c1.39-4.47,3.37-9.05,6-11A135,135,0,0,0,51,163.3c.43.77.87,1.53,1.24,2.34,2.29,5,4.25,10,6,15.1l5.46,5.11c7.61,9.68,12.15,16.7,21.82,25.5,8.84,8.05,17.35,16.22,25.71,24.75,4,4.11,8.3,5.12,13.91,8,7.66,4,14,3.69-1.07,1.74a51.56,51.56,0,0,1,11.58,2.89,1.41,1.41,0,0,1-.07-.15h0c.79.18,1.6.36,2.42.52a28.61,28.61,0,0,0,6.59.52c5.93-.1,15.4-1.53,26.46-7.88,0,0-8.55,9.61-11.18,10.34,0,0,19.53-1.5,29.76-12.07,0,0-8.07,10.12-10.31,11.72,0,0,23.25-4.87,38.24-20.54,0,0-3.7,6.51-5.13,7.34,0,0,21.47,1.31,23.67-28.17A12.17,12.17,0,0,1,240.43,219ZM110.57,82.08c-5.18-14,1.11-36.29,1.11-36.29,17,2.76,29,27.54,29,27.54C126.06,74.2,110.57,82.08,110.57,82.08Zm43.33,98.71c-13.91-5.6-19.54-23.85-12.56-40.78s28.33-36.87,42.24-31.27,15.1,34.61,8.13,51.53S167.8,186.38,153.9,180.79Zm52.63,12.93c-5.31,5.59-15,9.74-15,9.74S172.19,182.4,185,184.17,211.84,188.13,206.53,193.72Zm26.72-66s-8.34-20.9-13-26.59c-2-2.45,15.63-9.52,33.28-.92C253.5,100.18,245.57,123.93,233.25,127.69Z"/><path class="cls-21" d="M54.24,127.35s-20.48,32.26-13.5,55.92c0,0,3.33-16.59,6.93-23,0,0-9.4,29.51,23.64,59.21A52,52,0,0,1,62.87,195s31.8,54.79,80.58,54.65L86.88,189.29S75,140.35,74.33,139.8,54.24,127.35,54.24,127.35Z"/><ellipse class="cls-21" cx="176.26" cy="165.47" rx="10.62" ry="5.03" transform="translate(-32.53 287.35) rotate(-73.46)"/><ellipse class="cls-9" cx="195.62" cy="170.46" rx="10.62" ry="5.03" transform="translate(-23.47 309.48) rotate(-73.46)"/></g><path class="cls-7" d="M207,225.06a64.73,64.73,0,0,1-18.13-2.61l-64.1-18.77a64.63,64.63,0,1,1,36.32-124l64.1,18.76A64.64,64.64,0,0,1,207,225.06ZM142.89,92.42a49.23,49.23,0,0,0-13.76,96.47l64.1,18.76a49.21,49.21,0,1,0,27.65-94.46L156.79,94.42A49.49,49.49,0,0,0,142.89,92.42Z"/><path class="cls-22" d="M87.79,238.36s20.08,19.52,61.22,25.79l-3.46,10.4S110.52,273.09,87.79,238.36Z"/><path class="cls-7" d="M77.59,75.46,61.06,68a731.3,731.3,0,0,0-34.34,94.6l17.49,4.83A711,711,0,0,1,77.59,75.46Z"/><path class="cls-7" d="M76.16,127c-4.79,13.19-18.29,43.1-31.95,40.42C30,164.6,38.07,125.48,42,114.57S64.93,68.5,77.59,75.46C89.8,82.18,80.94,113.78,76.16,127Z"/><path class="cls-17" d="M59.09,120.77C55,132,39.87,166.87,26.72,162.55,12.26,157.79,20.4,121,25,108.38s22-46,36.09-40.43C73.94,73.07,63.17,109.53,59.09,120.77Z"/><path class="cls-7" d="M50.29,117.46c-1.92,5.29-9,21.71-15.25,19.67-6.8-2.24-3-19.57-.82-25.51s10.35-21.68,17-19C57.28,95,52.21,112.17,50.29,117.46Z"/><circle class="cls-22" cx="164.25" cy="234.49" r="36.44"/><circle class="cls-23" cx="168.9" cy="232.17" r="36.44"/><circle class="cls-6" cx="173.76" cy="233.38" r="23.68"/><path class="cls-24" d="M173.15,232.77,90.41,198.53a24.39,24.39,0,0,1-13.06-32.24l57-131.4a24.4,24.4,0,0,1,29-13.78l40.24,11.26"/><rect class="cls-17" x="179.83" y="22.77" width="65.58" height="27.71" rx="6.54" ry="6.54" transform="translate(320.43 -150.27) rotate(110.2)"/><rect class="cls-17" x="179.83" y="17.8" width="65.58" height="37.65" rx="7.54" ry="7.54" transform="translate(23.68 -67.55) rotate(19.1)"/><rect class="cls-7" x="214.85" y="4.53" width="4.86" height="48.4" rx="2.43" ry="2.43" transform="translate(124.45 227.27) rotate(-72.47)"/><rect class="cls-7" x="212.22" y="13.04" width="4.86" height="48.4" rx="2.43" ry="2.43" transform="translate(114.5 230.71) rotate(-72.47)"/><rect class="cls-7" x="208.37" y="22.75" width="4.86" height="48.4" rx="2.43" ry="2.43" transform="translate(102.56 233.83) rotate(-72.47)"/><circle class="cls-25" cx="168.74" cy="221.05" r="2.85"/><circle class="cls-25" cx="188.01" cy="227.92" r="2.85"/><circle class="cls-25" cx="178.38" cy="224.49" r="2.85"/><circle class="cls-25" cx="165.19" cy="229.57" r="2.85"/><circle class="cls-25" cx="184.45" cy="236.44" r="2.85"/><circle class="cls-25" cx="174.82" cy="233.01" r="2.85"/><circle class="cls-25" cx="161.49" cy="239.35" r="2.85"/><circle class="cls-25" cx="180.75" cy="246.22" r="2.85"/><circle class="cls-25" cx="171.12" cy="242.79" r="2.85"/><circle class="cls-9" cx="274.13" cy="97.26" r="9.85"/><circle class="cls-9" cx="265.62" cy="72.62" r="4.03"/><circle class="cls-9" cx="284.43" cy="44.85" r="5.82"/><circle class="cls-9" cx="265.86" cy="31.24" r="7.17"/><path class="cls-26" d="M129.38,385h0l0-.06c.44-.58,2.28.33,2.28.33.1-.16.19-.32.28-.48l.09-.16.18-.31a1,1,0,0,1,.11-.17c0-.1.11-.19.16-.28a1.74,1.74,0,0,0,.11-.18c.06-.09.11-.18.17-.26a1,1,0,0,1,.11-.17c.05-.09.11-.18.17-.27l.1-.15.21-.31.06-.09c.09-.13.17-.26.26-.38l.09-.12.18-.25.11-.15.16-.21.11-.15.16-.2a1.71,1.71,0,0,0,.11-.14l.16-.19.11-.13.18-.21.08-.1.26-.29.08-.09.19-.19.1-.12.16-.15.11-.12.15-.14.12-.11.15-.14.11-.1.15-.14.11-.09.21-.18.11-.08.19-.15.11-.08.14-.11.12-.08.14-.1.12-.08.13-.09.12-.07.14-.08.12-.07.15-.09.14-.07.2-.1.12-.06.13-.06.12-.06.13-.05.12-.05.12,0,.13,0,.12,0,.13,0,.11,0,.13,0,.08,0,.28-.07.11,0,.13,0h.11l.13,0h.1l.14,0h1.37l.15,0H143l.15,0h.07l.16,0h0l.57.14h0l.16.05.06,0,.16.05.05,0,.16.06h0l.17.07h0c.26.11.51.23.76.36h0l.17.09,0,0,.17.1h0l.27.17c0-.14,0-.29,0-.43h0a5,5,0,0,1,.5-1.64v0a4.91,4.91,0,0,1,.28-.5h0l.09-.14,0,0,.09-.14,0,0,.19-.24,0,0,.09-.11.06-.07.09-.09.07-.08L148,374l.14-.13.08-.07.1-.08a.27.27,0,0,1,.08-.07l.11-.08.06-.05.18-.13,0,0,.14-.09.07,0,.13-.07.06,0,.19-.09,0,0,.17-.06.06,0,.15-.05h.06l.2-.06.16,0h0c.7-.06,1.66.42,1.12,1.21-.29.46-1,.68-1.4,1a8.07,8.07,0,0,0-1.5,1.17,3.65,3.65,0,0,0-.82,1.28,4,4,0,0,1,1.32-.78h0a4.89,4.89,0,0,1,1.27-.29H151a5.07,5.07,0,0,1,.55,0h.08l.14,0,.1,0,.13,0,.11,0,.12,0,.11,0,.11,0,.13,0,.1,0,.2.07.06,0,.16.07.08,0,.13.06.08,0,.12.06.08.05.11.07.07,0,.12.09.06,0,.17.14.06.06,0,0a1.12,1.12,0,0,1,.13.16h0c.38.56.47,1.48-.42,1.5a4.17,4.17,0,0,1-1.61-.58,7.72,7.72,0,0,0-1.82-.52,3.36,3.36,0,0,0-2.72.69l0,0a4,4,0,0,1,4.71,2.22c.2.51-.06,1.47-.78,1.11-.38-.18-.62-.66-.88-1a6.83,6.83,0,0,0-1.06-1,2.69,2.69,0,0,0-1.08-.5A33.81,33.81,0,0,1,155,389.2l5.52-6.13s.21,10.62.29,10.88-4.88-3.74-5.8-4.48c-6.08,5.17-11.43,6-15.64,4.89C132.67,392.66,128.82,386.22,129.38,385Z"/><path class="cls-26" d="M167.88,366v0a.35.35,0,0,1,.05-.08c.62-.82,3.22.46,3.22.46l.38-.68c0-.07.09-.14.13-.22l.26-.43.14-.25.24-.39a2.13,2.13,0,0,1,.16-.25c.07-.13.15-.25.23-.37l.15-.24.24-.38.14-.21.3-.44.08-.13c.13-.18.25-.36.38-.53l.12-.17.25-.36.15-.2.23-.3.16-.2.22-.29.16-.19a3.11,3.11,0,0,1,.23-.28l.15-.18a3.47,3.47,0,0,1,.25-.29l.12-.15.36-.41.11-.12.27-.28.15-.15.22-.23.16-.16.21-.2.16-.15.21-.2a1.07,1.07,0,0,1,.16-.14l.22-.2.14-.12.3-.25.15-.12.27-.21.15-.12.21-.15.17-.12.19-.13.17-.11.19-.13.17-.1.19-.12.17-.09.21-.12.2-.11.28-.14.17-.08.18-.09.18-.08.17-.07.18-.07.17-.07.18-.06.16-.06.18-.06.17-.05.18,0,.12,0,.39-.1.14,0,.2,0,.14,0,.19,0,.15,0,.19,0,.14,0h1.47l.21,0h.11l.21,0h.1l.21,0,.1,0,.22,0h0c.27.05.54.12.81.19l.05,0,.23.07.08,0,.22.08.08,0,.22.09.07,0,.23.09h0a10.57,10.57,0,0,1,1.08.5l0,0,.24.13,0,0,.24.14,0,0,.38.23a4,4,0,0,1,0-.6h0a6.77,6.77,0,0,1,.7-2.31v0c.12-.24.26-.48.4-.71h0l.13-.21,0-.06.14-.19,0-.05c.08-.12.17-.23.26-.35l.05,0,.13-.15.09-.1.12-.13a1.14,1.14,0,0,1,.11-.11.8.8,0,0,1,.13-.13l.19-.19.11-.09.14-.12.11-.09.15-.12.1-.07.24-.17.08-.06.19-.11.1-.06.18-.1.09-.05.27-.13.05,0,.23-.09.09,0,.2-.07.09,0,.28-.07.23,0h0c1-.08,2.35.6,1.58,1.71-.41.65-1.35,1-2,1.36a11.2,11.2,0,0,0-2.1,1.66,5,5,0,0,0-1.16,1.8,5.43,5.43,0,0,1,1.86-1.1h0a7.66,7.66,0,0,1,1.79-.42h0l.26,0h.73c.27,0,.53,0,.79.05h.11l.19,0,.15,0,.18,0,.15,0,.17,0,.16,0,.16,0,.18.05.13,0,.28.1.09,0,.23.09.11.05.18.09.12.06.17.09.11.06.16.1.1.07.17.12.08.06.23.2.1.09,0,0a2.31,2.31,0,0,1,.18.23h0c.54.79.66,2.08-.59,2.11a5.91,5.91,0,0,1-2.26-.81,11,11,0,0,0-2.58-.74,4.73,4.73,0,0,0-3.82,1l.07.06c2.36-.94,5.78.82,6.63,3.12.28.72-.08,2.07-1.09,1.56-.54-.25-.88-.93-1.25-1.37a8.77,8.77,0,0,0-1.48-1.44,3.79,3.79,0,0,0-1.54-.71c5,4.88,8.3,12.14,8.93,13.58l7.78-8.64s.28,15,.4,15.33-6.87-5.27-8.17-6.31c-8.57,7.28-16.1,8.4-22,6.88C172.52,376.73,167.09,367.66,167.88,366Z"/><path class="cls-26" d="M4.69,233.76v0a.56.56,0,0,1,0-.08c.61-.93,3.5.27,3.5.27.12-.26.24-.51.37-.76l.12-.24.24-.49.15-.28c.07-.15.15-.29.22-.44l.15-.28.23-.42.14-.26.24-.42.14-.24c.09-.17.19-.33.28-.49l.09-.15.36-.6.12-.19.25-.4.15-.23.23-.34.15-.23.22-.32c.05-.07.1-.15.16-.22l.22-.32.15-.2.25-.34.12-.16c.12-.16.25-.31.37-.46a1.34,1.34,0,0,1,.11-.14c.08-.11.17-.21.26-.32l.15-.18.22-.25.16-.19.22-.23.16-.18.21-.22.16-.17.23-.22.15-.15.3-.29.15-.14.28-.24.16-.13.21-.18.17-.14.2-.16.17-.13.2-.15.18-.12.2-.14.17-.12.21-.14.22-.13.28-.17.18-.1.19-.11.18-.09.19-.09.18-.09.18-.08.19-.09.17-.07.2-.08.17-.06.19-.07.12,0,.42-.13.15-.05.21,0,.15,0,.21,0,.15,0,.21,0,.14,0,.21,0h.14l.22,0h.05l.54,0h1.12l.23,0h.1l.24,0h0c.3,0,.59.09.88.15l.07,0,.25,0,.08,0,.25.06.08,0,.25.08.07,0,.26.08h0c.4.14.8.3,1.19.47l.05,0,.26.12.06,0,.26.12,0,0,.42.22c0-.22,0-.43,0-.65h0a7.69,7.69,0,0,1,.59-2.54l0,0a8.17,8.17,0,0,1,.38-.79h0l.13-.22,0-.07.13-.22,0-.06.27-.39.05-.06.12-.17.09-.11.12-.16.11-.12.13-.15.2-.21a1.14,1.14,0,0,1,.11-.11l.14-.14.11-.1.16-.14.1-.09.25-.2.08-.06.19-.14.1-.07.2-.12.09-.06.28-.15,0,0,.24-.12.1,0,.21-.08.09,0,.3-.1.24-.05h0c1-.16,2.57.47,1.82,1.73-.4.72-1.39,1.13-2,1.6a12.32,12.32,0,0,0-2.15,1.93,5.39,5.39,0,0,0-1.12,2,6.13,6.13,0,0,1,1.93-1.32h0a7.94,7.94,0,0,1,1.89-.56h.05l.28,0,.08,0,.26,0h.1l.26,0h.08c.29,0,.57,0,.85,0h.12l.21,0h.16l.19,0,.17,0,.19,0,.18,0,.17,0,.19,0,.15,0,.31.08.1,0,.25.09.13.05.2.08.12.05.19.09.12.06.18.1.12.06.18.12.1.06.26.19a.52.52,0,0,1,.11.1l0,0a1.15,1.15,0,0,1,.21.23h0c.63.81.85,2.19-.5,2.31a6.2,6.2,0,0,1-2.48-.72,12.44,12.44,0,0,0-2.83-.62,5.1,5.1,0,0,0-4.05,1.32l.08.06c2.48-1.18,6.29.48,7.36,2.9.35.76,0,2.24-1.07,1.76-.6-.23-1-.94-1.44-1.39a9.11,9.11,0,0,0-1.7-1.45,4.18,4.18,0,0,0-1.69-.66c5.69,4.91,9.77,12.5,10.55,14l7.77-9.84s1.35,16.1,1.49,16.48S45.48,239,44,238c-8.73,8.43-16.76,10.16-23.26,8.93C10.42,245,4,235.61,4.69,233.76Z"/><path class="cls-26" d="M117.93,365.47h0l0,0c.26-.34,1.33.19,1.33.19l.15-.28.06-.09.1-.18.06-.1.1-.16.06-.1c0-.06.07-.11.1-.16l.06-.1.1-.15.06-.09.12-.18,0,0,.16-.22,0-.07.1-.14.06-.09.1-.12.06-.08.09-.12.07-.08.09-.11.06-.08.11-.12,0-.06.15-.17,0,0,.11-.11.06-.06.09-.1.07-.06.08-.09L122,362l.09-.08.06-.06.09-.08.06,0,.13-.1.06-.05.11-.09.06,0,.08-.07a.18.18,0,0,0,.07-.05l.08-.05.07,0,.08-.05.07,0,.08-.05.07,0,.08-.05.09,0,.11-.06.07,0,.07,0,.08,0,.07,0,.07,0,.07,0,.07,0,.07,0,.08,0,.06,0,.08,0,0,0,.16,0h.2l.08,0H126l.09,0h0l.33.08h0l.09,0h0l.1,0h0l.09,0h0l.09,0h0l.44.2h0l.09,0h0l.1.06h0l.16.09a1.93,1.93,0,0,1,0-.24h0A3,3,0,0,1,128,360h0c.05-.1.1-.2.16-.3h0l.06-.08,0,0,0-.07,0,0,.11-.14,0,0,.05-.06,0,0,.06-.06,0,0,0-.06.08-.07.05,0,0,0,.05,0,.06-.05,0,0,.1-.08,0,0,.08,0,0,0,.08,0,0,0,.11-.05h0l.1,0h0l.08,0h0l.12,0,.09,0h0c.4,0,1,.25.65.71-.17.26-.55.39-.81.55a4.48,4.48,0,0,0-.87.69,2.06,2.06,0,0,0-.47.73,2.39,2.39,0,0,1,.76-.45h0a3.53,3.53,0,0,1,.73-.17h.43l.32,0h.32l.07,0h.07l.06,0,.08,0,0,0,.12,0h0l.1,0,0,0,.08,0,.05,0,.06,0,0,0,.07,0,0,0,.07,0,0,0,.1.08,0,0h0a.36.36,0,0,1,.08.09h0c.22.33.27.86-.25.87a2.29,2.29,0,0,1-.92-.34,4.92,4.92,0,0,0-1.06-.3,2,2,0,0,0-1.57.4l0,0a2.32,2.32,0,0,1,2.72,1.28c.11.29,0,.85-.45.64-.22-.1-.36-.38-.51-.56a3.41,3.41,0,0,0-.61-.59,1.72,1.72,0,0,0-.63-.3,19.94,19.94,0,0,1,3.67,5.58l3.19-3.55s.12,6.15.17,6.3-2.82-2.16-3.36-2.59c-3.52,3-6.61,3.45-9,2.83C119.83,369.88,117.61,366.16,117.93,365.47Z"/><path class="cls-26" d="M13.64,192.28h0l0,0c.31-.41,1.6.22,1.6.22s.13-.22.19-.33l.07-.11a2.53,2.53,0,0,1,.13-.22.75.75,0,0,1,.07-.12l.12-.2.07-.12.12-.18.07-.12.12-.19.07-.11.15-.21,0-.07.19-.26.06-.09.13-.17a.86.86,0,0,1,.07-.1l.11-.15.08-.1.11-.14.08-.1a1.34,1.34,0,0,0,.11-.14l.08-.09.12-.15.06-.07.19-.2.05-.06.13-.14.07-.08.11-.11.08-.08.11-.1.08-.07a.94.94,0,0,1,.1-.1l.08-.07.11-.1.07-.06.15-.12.08-.06.13-.11.08-.06.1-.07.08-.06.1-.07.08,0,.1-.06.08-.06.1-.05.08,0,.1-.06.1-.05.14-.07.08,0,.09-.05.09,0,.09,0,.09,0,.08,0,.09,0,.08,0,.09,0,.08,0,.09,0,.06,0,.2,0,.07,0,.09,0h.08l.09,0H22l.1,0h1.11l.11,0h0l.12,0h0a2.88,2.88,0,0,1,.4.09h0l.11,0,0,0,.11,0,0,0,.11,0h0l.12,0h0a3.76,3.76,0,0,1,.54.25h0l.12.06h0l.12.07h0l.18.11c0-.09,0-.19,0-.29h0a3.47,3.47,0,0,1,.35-1.15h0a3.24,3.24,0,0,1,.2-.36h0l.06-.1,0,0a.36.36,0,0,0,.07-.1l0,0,.13-.17,0,0,.06-.08,0,0,.07-.07.05-.06.06-.06.1-.09s0,0,0-.05l.07-.06.06,0,.07-.06,0,0,.12-.08,0,0,.09-.06.05,0,.09-.06.05,0,.13-.06h0l.12-.05,0,0,.1,0H28l.14,0,.11,0h0c.49,0,1.16.3.78.85-.2.32-.67.48-1,.68a5.53,5.53,0,0,0-1,.82,2.51,2.51,0,0,0-.58.89,3,3,0,0,1,.93-.54h0a3.76,3.76,0,0,1,.88-.21h.52l.39,0h.22l.09,0h.08l.08,0,.08,0,.08,0,.09,0,.06,0,.14,0,.05,0,.11.05.06,0,.09,0,0,0,.09,0,.05,0,.08.05.05,0,.08.06,0,0,.12.09L31,187h0l.09.11h0c.27.39.33,1-.3,1a2.9,2.9,0,0,1-1.12-.4,5.54,5.54,0,0,0-1.28-.37,2.34,2.34,0,0,0-1.89.49l0,0a2.8,2.8,0,0,1,3.29,1.55c.14.36,0,1-.54.78-.27-.13-.44-.47-.62-.69a4.15,4.15,0,0,0-.74-.71,1.91,1.91,0,0,0-.76-.35,24,24,0,0,1,4.44,6.74l3.86-4.29s.14,7.43.2,7.61-3.41-2.61-4.06-3.13c-4.26,3.61-8,4.17-10.94,3.42C15.94,197.62,13.25,193.11,13.64,192.28Z"/><path class="cls-26" d="M114.53,29.36h0a.08.08,0,0,0,0,0c-.28-.36-1.43.21-1.43.21s-.12-.2-.17-.3l-.06-.1a2,2,0,0,1-.11-.2.41.41,0,0,1-.07-.11l-.1-.17-.07-.11-.11-.17-.06-.1-.11-.17-.06-.1L112,27.8l0-.06-.17-.24,0-.07-.12-.16-.07-.09a1.13,1.13,0,0,0-.1-.13L111.4,27a.64.64,0,0,0-.1-.13l-.07-.09-.1-.12-.06-.08-.12-.13,0-.07-.16-.18,0-.05-.12-.12-.06-.07-.1-.1-.07-.07a.94.94,0,0,0-.1-.1l-.07-.06-.09-.09a.23.23,0,0,1-.07-.07.39.39,0,0,1-.1-.08l-.07-.06-.13-.11-.07-.05-.12-.09-.06-.06-.1-.06-.07-.06-.09-.06-.07-.05L109,24.7l-.07-.05-.09,0-.07,0-.09,0-.1-.05-.12-.07-.07,0-.08,0-.08,0-.08,0-.08,0-.07,0-.08,0-.08,0-.08,0-.07,0-.08,0h-.05l-.18,0-.06,0h-.15l-.09,0h-1.28l-.1,0h0a2.11,2.11,0,0,0-.36.09h0l-.1,0,0,0-.09,0h0l-.1,0h0l-.1,0h0l-.48.22h0l-.11.06h0l-.1.06h0l-.17.1c0-.09,0-.17,0-.26h0a3,3,0,0,0-.32-1h0l-.18-.32h0l-.06-.09,0,0-.06-.08,0,0-.12-.15,0,0-.06-.06,0-.05-.06-.06,0-.05,0-.05-.09-.09,0,0-.06-.05,0,0-.07-.05,0,0-.11-.07,0,0-.08-.05,0,0-.08-.05,0,0-.12-.06h0l-.11-.05h0l-.09,0h0l-.12,0h-.11c-.44,0-1,.26-.7.76.18.29.6.43.88.6a5.13,5.13,0,0,1,.93.74,2.28,2.28,0,0,1,.52.8,2.64,2.64,0,0,0-.83-.49h0a3.49,3.49,0,0,0-.79-.18H101a2,2,0,0,0-.35,0h-.2l-.08,0h-.07l-.08,0-.07,0h-.07L100,24l-.06,0-.12,0h0l-.11,0,0,0a.2.2,0,0,0-.08,0l-.06,0-.07,0-.05,0-.07.05,0,0-.07.05,0,0-.1.08,0,.05h0a.44.44,0,0,0-.08.11h0c-.23.35-.29.93.27.94a2.58,2.58,0,0,0,1-.37,5,5,0,0,1,1.14-.32,2.09,2.09,0,0,1,1.7.43l0,0a2.52,2.52,0,0,0-3,1.39c-.12.32,0,.92.49.69.24-.11.39-.41.55-.61a4.45,4.45,0,0,1,.66-.64,1.7,1.7,0,0,1,.68-.31,21.38,21.38,0,0,0-4,6L95,28.13s-.13,6.66-.18,6.82,3.06-2.35,3.64-2.81c3.81,3.24,7.16,3.74,9.8,3.06C112.46,34.14,114.88,30.1,114.53,29.36Z"/><path class="cls-26" d="M99,10.83h0l0,0c-.39-.52-2,.28-2,.28l-.24-.42-.08-.14-.16-.27-.09-.16-.15-.24c0-.06-.07-.11-.1-.16L96,9.44s-.07-.11-.1-.15l-.15-.24-.09-.13-.18-.28-.06-.08-.23-.33-.08-.11c0-.07-.1-.15-.16-.22l-.09-.13-.15-.19-.09-.12-.14-.18a1.13,1.13,0,0,1-.1-.13A1.15,1.15,0,0,1,94.19,7l-.1-.11a1.46,1.46,0,0,0-.16-.19l-.07-.09-.23-.25-.07-.08-.16-.17L93.3,6a.93.93,0,0,0-.14-.14l-.1-.1-.13-.13a.94.94,0,0,1-.1-.1L92.7,5.4l-.1-.09-.14-.12-.09-.08L92.18,5l-.09-.08-.17-.13-.1-.07-.13-.1-.1-.07-.12-.09-.11-.07-.12-.07-.1-.07L91,4.14a.33.33,0,0,0-.1-.06L90.78,4l-.13-.07-.17-.09-.11,0-.11,0-.11-.05-.11,0-.11,0-.11,0-.11,0-.1,0-.12,0-.1,0-.11,0-.08,0L89,3.3l-.1,0-.12,0-.09,0h-.12l-.09,0H86.92l-.14,0h-.06l-.14,0h0l-.51.12h0l-.14,0,0,0-.14,0,0,0-.14.05,0,0-.15,0h0c-.23.09-.45.2-.67.31h0l-.15.08,0,0-.14.08,0,0L84,4.32A2.3,2.3,0,0,0,84,4h0a4.05,4.05,0,0,0-.44-1.45v0A3.91,3.91,0,0,0,83.3,2h0l-.08-.12,0,0-.08-.12,0,0a1.84,1.84,0,0,0-.17-.22l0,0-.08-.09,0-.06-.08-.09-.06-.06-.08-.09L82.4,1,82.33.9a.6.6,0,0,0-.08-.08l-.07,0-.1-.08L82,.65,81.87.54l-.05,0L81.7.43l-.06,0L81.52.33l0,0L81.3.22h0L81.13.15l-.06,0-.13,0,0,0-.18,0-.14,0h0c-.62,0-1.47.38-1,1.08.26.4.84.6,1.24.85a7,7,0,0,1,1.32,1,3.11,3.11,0,0,1,.73,1.13,3.72,3.72,0,0,0-1.17-.7h0a5.2,5.2,0,0,0-1.12-.25h-.45a.75.75,0,0,0-.15,0h0a3.91,3.91,0,0,0-.49,0h-.07l-.12,0h-.09L79,3.2l-.09,0-.11,0-.1,0-.1,0-.11,0-.09,0-.17.06-.06,0-.14.06-.07,0-.11.05-.08,0-.1.06-.07,0-.1.06-.07,0-.1.08,0,0a.79.79,0,0,0-.15.12l-.06.05v0a.76.76,0,0,0-.11.14h0c-.33.49-.41,1.3.38,1.32a3.87,3.87,0,0,0,1.41-.51,7.14,7.14,0,0,1,1.62-.47,3,3,0,0,1,2.39.62l0,0a3.58,3.58,0,0,0-4.16,2c-.17.45.05,1.3.69,1,.34-.16.55-.58.78-.86a5.66,5.66,0,0,1,.93-.9,2.52,2.52,0,0,1,1-.45,30.1,30.1,0,0,0-5.6,8.52L71.46,9.1s-.18,9.38-.25,9.61,4.3-3.3,5.12-4C81.7,19.32,86.42,20,90.14,19.07,96.06,17.57,99.46,11.88,99,10.83Z"/><path class="cls-26" d="M125,12.65h0v0c-.16-.21-.83.12-.83.12l-.1-.17,0-.06-.07-.11,0-.07-.06-.1,0-.06-.06-.1,0-.06-.06-.1,0-.05-.07-.11,0,0a1.13,1.13,0,0,1-.1-.13l0-.05-.07-.09,0,0-.06-.08,0-.05,0-.07,0-.06-.06-.07,0,0-.07-.08,0,0-.09-.1,0,0-.07-.07,0,0-.05-.06,0,0-.06-.06,0,0-.05-.05,0,0-.06-.05,0,0a.27.27,0,0,0-.08-.07l0,0-.07,0,0,0-.06,0,0,0,0,0,0,0,0,0,0,0,0,0,0,0,0,0,0,0-.08,0,0,0,0,0,0,0,0,0,0,0h0l0,0h0l0,0h0l0,0h0l-.1,0h-1l-.21.05h-.09l-.06,0h0l-.06,0h0l-.07,0h0l-.28.13h0l-.06,0h0l-.06,0h0l-.1.06a.76.76,0,0,0,0-.15h0a1.66,1.66,0,0,0-.18-.6h0a1.14,1.14,0,0,0-.1-.19h0l0,0V9l0-.05h0l-.07-.09h0l0,0,0,0,0,0,0,0,0,0s0,0,0-.05l0,0,0,0,0,0,0,0,0,0-.06,0,0,0,0,0h0l0,0h0l-.06,0h0l-.06,0h0l0,0h0l-.08,0h-.06c-.25,0-.6.15-.41.44a1.65,1.65,0,0,0,.51.35,2.49,2.49,0,0,1,.54.43,1.14,1.14,0,0,1,.3.46,1.54,1.54,0,0,0-.48-.29h0a2.21,2.21,0,0,0-.46-.1h-.87l-.07,0h0l-.06,0,0,0,0,0h0l0,0h0l0,0,0,0,0,0h0l-.06,0,0,0h0l0,.06h0c-.14.21-.17.54.15.55a1.56,1.56,0,0,0,.58-.21,2.57,2.57,0,0,1,.67-.19,1.21,1.21,0,0,1,1,.25h0a1.46,1.46,0,0,0-1.71.81c-.07.18,0,.53.29.4s.22-.24.32-.36a2.23,2.23,0,0,1,.38-.37,1.14,1.14,0,0,1,.39-.18,12.63,12.63,0,0,0-2.3,3.5l-2-2.23s-.07,3.86-.1,4,1.77-1.35,2.1-1.62c2.21,1.87,4.15,2.16,5.68,1.77C123.76,15.41,125.15,13.08,125,12.65Z"/><path class="cls-17" d="M168.1,307.27l.87-6.12c-29.71-4.22-49.66-16.32-59.3-36A55.87,55.87,0,0,1,104,237.1l-6.14-.71a61.63,61.63,0,0,0,6.26,31.5C117.32,294.81,146.2,304.16,168.1,307.27Z"/><path class="cls-17" d="M168.22,303c-.63-3.61,5.4-17.77,9.36-13.1,2.93,3.69-4.61,11.16-6.92,13.58l.35.32a30.51,30.51,0,0,1,5,4.31c2.3,2.56,12,16.22,9,19.8-3.87,5-12.23-14.33-13.59-17.46,2.08,5.13,1.91,15.36-3.29,18.59-5.61-2.94.78-16.1,2.72-20.19-1.71,2.2-7.28,10.09-8.83,4.55-.81-2.87,2.37-6,4.22-7.85"/><path class="cls-17" d="M271.46,250.92s23.26-7,19.77,15.12C291.23,266,290.07,255.58,271.46,250.92Z"/><path class="cls-17" d="M284.61,244.31S299,240,296.83,253.65C296.83,253.65,296.11,247.18,284.61,244.31Z"/><path class="cls-17" d="M159.54,346.83s-24.27.77-15.22-19.69C144.32,327.14,142.76,337.55,159.54,346.83Z"/><path class="cls-17" d="M145.14,349.84s-15,.48-9.41-12.16C135.73,337.68,134.76,344.11,145.14,349.84Z"/><path class="cls-12" d="M244,372.75s19-6.33,21.08,12.64"/><line class="cls-27" x1="214.5" y1="308.46" x2="200.28" y2="290.34"/><line class="cls-27" x1="207.13" y1="312.68" x2="194.77" y2="298.75"/></g></g></g></svg>